# xmcd
#
# Track frame offsets:
# 150
# 13233
# 25245
# 37158
# 53024
# 68719
# 84964
# 100942
# 113470
# 130847
#
# Disc length: 1958 seconds
#
#
# Revision: 0
# Processed by: cddbd v1.5.2PL0 Copyright (c) Steve Scherf et al.
# Submitted via: FreeRIP 2.945 
#
DISCID=7807a40a
DTITLE=Brigid Kaelin - West 28th Street
DYEAR=2008
DGENRE=Blues
TTITLE0=I Did Something Bad
TTITLE1=Watch Out!
TTITLE2=Waiting for the Day (La La La)
TTITLE3=Catty Woman Blues
TTITLE4=Betty Jean
TTITLE5=Sunday Afternoon
TTITLE6=One More Last Kiss
TTITLE7=You Make Me Wanna Go to Church
TTITLE8=Hold Me Likd that Old Guitar
TTITLE9=West 28th Street
EXTD=www.brigidkaelin.com\nwww.myspace.com/brigidkaelin
EXTT0=
EXTT1=
EXTT2=
EXTT3=
EXTT4=
EXTT5=
EXTT6=
EXTT7=
EXTT8=
EXTT9=
PLAYORDER=
